<svg width="12" height="7" viewBox="0 0 12 7" fill="none" xmlns="http://www.w3.org/2000/svg">
<path d="M5.99991 6.3731C5.89221 6.3731 5.79285 6.35547 5.70183 6.32022C5.6108 6.28496 5.5217 6.22374 5.43453 6.13657L1.04606 1.7481C0.952472 1.65451 0.902472 1.53977 0.896055 1.40387C0.889639 1.26797 0.939639 1.14681 1.04606 1.0404C1.15247 0.933998 1.27042 0.880798 1.3999 0.880798C1.52939 0.880798 1.64734 0.933998 1.75375 1.0404L5.99991 5.28655L10.2461 1.0404C10.3396 0.946814 10.4544 0.896814 10.5903 0.890398C10.7262 0.883998 10.8473 0.933998 10.9538 1.0404C11.0602 1.14681 11.1134 1.26476 11.1134 1.39425C11.1134 1.52375 11.0602 1.6417 10.9538 1.7481L6.56528 6.13657C6.47811 6.22374 6.38901 6.28496 6.29798 6.32022C6.20696 6.35547 6.1076 6.3731 5.99991 6.3731Z" fill="#1A1919"/>
</svg>
