<svg width="16" height="11" viewBox="0 0 16 11" fill="none" xmlns="http://www.w3.org/2000/svg">
<path d="M5.54979 9.88078L14.3517 1.07885C14.4491 0.981418 14.5649 0.929492 14.6988 0.923076C14.8328 0.916659 14.9549 0.968584 15.0652 1.07885C15.1754 1.1891 15.2306 1.30801 15.2306 1.43558C15.2306 1.56314 15.1754 1.68205 15.0652 1.7923L6.11516 10.7423C5.95363 10.9039 5.76517 10.9846 5.54979 10.9846C5.3344 10.9846 5.14595 10.9039 4.98441 10.7423L0.934413 6.6923C0.836963 6.59487 0.785996 6.47917 0.781513 6.3452C0.777029 6.21122 0.829913 6.0891 0.940163 5.97885C1.05043 5.86858 1.16935 5.81345 1.29691 5.81345C1.42448 5.81345 1.54339 5.86858 1.65364 5.97885L5.54979 9.88078Z" fill="white"/>
</svg>
