<svg width="24" height="24" viewBox="0 0 24 24" fill="none" xmlns="http://www.w3.org/2000/svg">
<mask id="mask0_2238_941" style="mask-type:alpha" maskUnits="userSpaceOnUse" x="0" y="0" width="24" height="24">
<rect width="24" height="24" fill="#D9D9D9"/>
</mask>
<g mask="url(#mask0_2238_941)">
<path d="M11.9999 12.7079L6.7538 17.954C6.66022 18.0476 6.54547 18.0976 6.40957 18.104C6.27367 18.1105 6.15252 18.0605 6.0461 17.954C5.93968 17.8476 5.88647 17.7297 5.88647 17.6002C5.88647 17.4707 5.93968 17.3528 6.0461 17.2463L11.2922 12.0002L6.0461 6.75404C5.95252 6.66046 5.90252 6.54572 5.8961 6.40982C5.88968 6.27392 5.93968 6.15276 6.0461 6.04634C6.15252 5.93993 6.27047 5.88672 6.39995 5.88672C6.52943 5.88672 6.64738 5.93993 6.7538 6.04634L11.9999 11.2925L17.2461 6.04634C17.3397 5.95276 17.4544 5.90276 17.5903 5.89634C17.7262 5.88993 17.8474 5.93993 17.9538 6.04634C18.0602 6.15276 18.1134 6.27071 18.1134 6.40019C18.1134 6.52968 18.0602 6.64763 17.9538 6.75404L12.7077 12.0002L17.9538 17.2463C18.0474 17.3399 18.0974 17.4547 18.1038 17.5906C18.1102 17.7265 18.0602 17.8476 17.9538 17.954C17.8474 18.0605 17.7294 18.1137 17.5999 18.1137C17.4705 18.1137 17.3525 18.0605 17.2461 17.954L11.9999 12.7079Z" fill="#1A1919"/>
</g>
</svg>
