<svg width="24" height="24" viewBox="0 0 24 24" fill="none" xmlns="http://www.w3.org/2000/svg">
<mask id="mask0_2238_426" style="mask-type:alpha" maskUnits="userSpaceOnUse" x="0" y="0" width="24" height="24">
<rect width="24" height="24" fill="#D9D9D9"/>
</mask>
<g mask="url(#mask0_2238_426)">
<path d="M4.70588 17.2059C4.50588 17.2059 4.33824 17.1383 4.20294 17.0029C4.06765 16.8676 4 16.6998 4 16.4998C4 16.2997 4.06765 16.132 4.20294 15.9969C4.33824 15.8618 4.50588 15.7942 4.70588 15.7942H19.2941C19.4941 15.7942 19.6618 15.8619 19.7971 15.9972C19.9324 16.1326 20 16.3003 20 16.5004C20 16.7005 19.9324 16.8681 19.7971 17.0032C19.6618 17.1384 19.4941 17.2059 19.2941 17.2059H4.70588ZM4.70588 12.6086C4.50588 12.6086 4.33824 12.541 4.20294 12.4056C4.06765 12.2703 4 12.1026 4 11.9025C4 11.7024 4.06765 11.5348 4.20294 11.3996C4.33824 11.2645 4.50588 11.1969 4.70588 11.1969H19.2941C19.4941 11.1969 19.6618 11.2646 19.7971 11.3999C19.9324 11.5353 20 11.703 20 11.9031C20 12.1032 19.9324 12.2708 19.7971 12.4059C19.6618 12.5411 19.4941 12.6086 19.2941 12.6086H4.70588ZM4.70588 8.01135C4.50588 8.01135 4.33824 7.94368 4.20294 7.80832C4.06765 7.67298 4 7.50526 4 7.30516C4 7.10508 4.06765 6.93748 4.20294 6.80234C4.33824 6.66719 4.50588 6.59961 4.70588 6.59961H19.2941C19.4941 6.59961 19.6618 6.66729 19.7971 6.80264C19.9324 6.938 20 7.10572 20 7.3058C20 7.50589 19.9324 7.67351 19.7971 7.80865C19.6618 7.94379 19.4941 8.01135 19.2941 8.01135H4.70588Z" fill="#1A1919"/>
</g>
</svg>
